<svg width="30" height="35" viewBox="0 0 30 35" fill="none" xmlns="http://www.w3.org/2000/svg">
<path d="M28.3271 11.2402C26.3171 15.386 17.2486 19.0629 13.2883 24.8459C9.38766 30.5393 11.1116 34.1143 11.1632 34.2217L11.1612 34.2217C10.9785 34.1232 4.10862 30.3711 6.5972 22.7542C9.25459 14.6255 18.8276 11.5283 23.2268 7.21256C27.8007 2.72685 27.2347 0.0268392 27.2208 9.16865e-08C27.3797 0.135985 31.5187 4.66106 28.3271 11.2402Z" fill="white"/>
<path d="M5.6441 22.5012C4.96883 24.5696 4.92712 26.375 5.25085 27.9227C4.52196 26.9941 3.81491 25.7237 3.35016 24.0078C2.22206 19.8477 3.02643 19.4809 0.257812 16.5215C0.257812 16.5215 4.10289 17.3571 6.9013 19.8173C6.3869 20.6458 5.95989 21.5368 5.6441 22.5012Z" fill="white"/>
</svg>
