<svg width="35" height="41" viewBox="0 0 35 41" fill="none" xmlns="http://www.w3.org/2000/svg">
<path d="M33.0936 13.5249C30.7621 18.334 20.2427 22.5992 15.6488 29.3074C11.124 35.9118 13.1238 40.0587 13.1837 40.1832L13.1814 40.1832C12.9694 40.0691 5.00039 35.7167 7.88712 26.8811C10.9697 17.4518 22.0743 13.8591 27.1773 8.85286C32.4831 3.64946 31.8265 0.517461 31.8104 0.486328C31.9947 0.64407 36.7959 5.89313 33.0936 13.5249Z" fill="#6E9E24"/>
<path d="M6.78712 26.5888C6.00381 28.9882 5.95543 31.0824 6.33096 32.8777C5.48544 31.8005 4.66527 30.3269 4.12617 28.3364C2.81758 23.5108 3.75064 23.0853 0.539062 19.6523C0.539062 19.6523 4.99933 20.6216 8.24546 23.4755C7.64877 24.4365 7.15344 25.4701 6.78712 26.5888Z" fill="#6E9E24"/>
</svg>
