<svg width="44" height="38" viewBox="0 0 44 38" fill="none" xmlns="http://www.w3.org/2000/svg">
<path d="M14.6014 2.1864C14.4171 1.49109 14.3618 0.760502 14.4471 0.0195313C6.12554 2.70321 0.15625 9.8763 0.15625 18.2864C0.15625 18.6019 0.165465 18.9132 0.181592 19.2246C0.898092 18.9651 1.66758 18.8074 2.46932 18.7679C2.46241 18.6081 2.46011 18.4483 2.46011 18.2864C2.46011 10.9888 7.49634 4.7331 14.6014 2.1864Z" fill="#6E9E24"/>
<path d="M40.9061 9.55664C40.3117 9.9842 39.6897 10.4138 39.0469 10.8539C40.2426 13.1058 40.9107 15.6276 40.9107 18.2864C40.9107 18.4483 40.9084 18.6102 40.9015 18.77C41.2217 18.7845 41.542 18.8198 41.8576 18.8738C42.3207 18.9526 42.7653 19.0709 43.1892 19.2245C43.2053 18.9132 43.2146 18.6019 43.2146 18.2864C43.2146 15.1482 42.3829 12.1822 40.9061 9.55664Z" fill="#6E9E24"/>
<path d="M21.6853 35.6065C16.1975 35.6065 11.2419 33.5247 7.73542 30.1914C7.15485 30.6646 6.48904 31.0507 5.76563 31.333C9.70752 35.2308 15.3842 37.6821 21.6853 37.6821C27.9863 37.6821 33.663 35.2308 37.6026 31.3309C36.8792 31.0528 36.2157 30.6688 35.6328 30.1935C32.1287 33.5268 27.1731 35.6065 21.6853 35.6065Z" fill="#6E9E24"/>
</svg>
