<svg width="38" height="33" viewBox="0 0 38 33" fill="none" xmlns="http://www.w3.org/2000/svg">
<path d="M12.8903 2.08675C12.7314 1.48735 12.6838 0.857521 12.7572 0.21875C5.58347 2.53228 0.4375 8.71601 0.4375 15.9662C0.4375 16.2381 0.445444 16.5065 0.459347 16.7749C1.07702 16.5512 1.74038 16.4153 2.43154 16.3813C2.42558 16.2435 2.42359 16.1057 2.42359 15.9662C2.42359 9.67506 6.7652 4.28219 12.8903 2.08675Z" fill="white"/>
<path d="M35.5637 8.44141C35.0513 8.81 34.5151 9.18038 33.9609 9.5597C34.9917 11.5011 35.5677 13.675 35.5677 15.9671C35.5677 16.1067 35.5657 16.2462 35.5597 16.384C35.8358 16.3965 36.1119 16.4269 36.384 16.4735C36.7832 16.5415 37.1665 16.6434 37.5319 16.7758C37.5458 16.5075 37.5538 16.2391 37.5538 15.9671C37.5538 13.2617 36.8368 10.7048 35.5637 8.44141Z" fill="white"/>
<path d="M18.9973 30.8987C14.2665 30.8987 9.99438 29.104 6.97155 26.2305C6.47105 26.6384 5.89707 26.9712 5.27344 27.2146C8.67164 30.5748 13.5654 32.688 18.9973 32.688C24.4293 32.688 29.3231 30.5748 32.7193 27.2128C32.0956 26.973 31.5236 26.642 31.0212 26.2323C28.0003 29.1058 23.7282 30.8987 18.9973 30.8987Z" fill="white"/>
</svg>
