<svg width="17" height="17" viewBox="0 0 17 17" fill="none" xmlns="http://www.w3.org/2000/svg">
<path d="M9.00313 10.4554L12.0631 7.39543C12.1249 7.33371 12.1738 7.26043 12.2072 7.17979C12.2406 7.09915 12.2578 7.01272 12.2578 6.92543C12.2578 6.83814 12.2406 6.75171 12.2072 6.67107C12.1738 6.59042 12.1249 6.51715 12.0631 6.45543C12.0014 6.39371 11.9281 6.34475 11.8475 6.31134C11.7669 6.27794 11.6804 6.26075 11.5931 6.26075C11.5058 6.26075 11.4194 6.27794 11.3388 6.31134C11.2581 6.34475 11.1849 6.39371 11.1231 6.45543L8.5298 9.04209L5.94313 6.45543C5.88141 6.39371 5.80814 6.34475 5.72749 6.31134C5.64685 6.27794 5.56042 6.26075 5.47313 6.26075C5.38585 6.26075 5.29941 6.27794 5.21877 6.31134C5.13813 6.34475 5.06485 6.39371 5.00313 6.45543C4.94141 6.51715 4.89245 6.59042 4.85905 6.67107C4.82564 6.75171 4.80845 6.83814 4.80845 6.92543C4.80845 7.01272 4.82564 7.09915 4.85905 7.17979C4.89245 7.26043 4.94141 7.33371 5.00313 7.39543L8.06313 10.4554C8.12481 10.5172 8.19807 10.5663 8.27872 10.5997C8.35936 10.6332 8.44582 10.6504 8.53313 10.6504C8.62044 10.6504 8.7069 10.6332 8.78755 10.5997C8.8682 10.5663 8.94146 10.5172 9.00313 10.4554Z" fill="#BE3981"/>
</svg>
