<svg width="20" height="20" viewBox="0 0 20 20" fill="none" xmlns="http://www.w3.org/2000/svg">
<path d="M9.11779 1.21496C9.44659 0.203027 10.8782 0.203027 11.207 1.21496L12.7517 5.96896C12.8987 6.42151 13.3204 6.72791 13.7963 6.72791H18.7949C19.8589 6.72791 20.3013 8.08945 19.4405 8.71486L15.3965 11.653C15.0116 11.9327 14.8505 12.4285 14.9975 12.881L16.5422 17.635C16.871 18.6469 15.7128 19.4884 14.852 18.863L10.808 15.9249C10.423 15.6452 9.90176 15.6452 9.5168 15.9249L5.4728 18.863C4.612 19.4884 3.4538 18.6469 3.7826 17.635L5.32727 12.881C5.47431 12.4285 5.31323 11.9327 4.92826 11.653L0.884269 8.71486C0.0234687 8.08945 0.465862 6.72791 1.52987 6.72791H6.52852C7.00436 6.72791 7.42608 6.42151 7.57313 5.96896L9.11779 1.21496Z" fill="#BA431E"/>
</svg>
