<svg width="19" height="19" viewBox="0 0 19 19" fill="none" xmlns="http://www.w3.org/2000/svg">
<path d="M17.9715 8.9181C19.3313 7.88954 18.6039 5.72207 16.8989 5.72207H13.8139C13.0342 5.72207 12.3455 5.21411 12.1152 4.46923L11.1955 1.49449C10.6791 -0.17596 8.31464 -0.175958 7.7982 1.49449L6.87853 4.46923C6.64825 5.21412 5.95953 5.72207 5.17986 5.72207H2.04148C0.341974 5.72207 -0.388909 7.87797 0.960211 8.9115L3.64814 10.9707C4.23761 11.4222 4.48436 12.1926 4.26696 12.9026L3.29034 16.0923C2.78386 17.7465 4.69839 19.0763 6.0717 18.0243L8.41561 16.2287C9.0536 15.7399 9.94014 15.7399 10.5781 16.2287L12.9014 18.0084C14.2766 19.062 16.193 17.727 15.6813 16.0718L14.6911 12.869C14.4701 12.1541 14.7204 11.3773 15.3172 10.9258L17.9715 8.9181Z" fill="#FFAD33"/>
</svg>
