<svg width="19" height="19" viewBox="0 0 19 19" fill="none" xmlns="http://www.w3.org/2000/svg">
<path d="M17.7762 8.9181C19.136 7.88954 18.4086 5.72207 16.7036 5.72207H13.6186C12.8389 5.72207 12.1502 5.21411 11.9199 4.46923L11.0002 1.49449C10.4838 -0.17596 8.11932 -0.175958 7.60289 1.49449L6.68322 4.46923C6.45293 5.21412 5.76422 5.72207 4.98455 5.72207H1.84616C0.146662 5.72207 -0.584222 7.87797 0.764898 8.9115L3.45282 10.9707C4.0423 11.4222 4.28905 12.1926 4.07165 12.9026L3.09502 16.0923C2.58854 17.7465 4.50308 19.0763 5.87638 18.0243L8.22029 16.2287C8.85829 15.7399 9.74483 15.7399 10.3828 16.2287L12.706 18.0084C14.0813 19.062 15.9977 17.727 15.486 16.0718L14.4958 12.869C14.2748 12.1541 14.5251 11.3773 15.1219 10.9258L17.7762 8.9181Z" fill="#FFAD33"/>
</svg>
