<svg width="19" height="19" viewBox="0 0 19 19" fill="none" xmlns="http://www.w3.org/2000/svg">
<path d="M18.1747 8.9181C19.5345 7.88954 18.8071 5.72207 17.1021 5.72207H14.017C13.2373 5.72207 12.5486 5.21411 12.3183 4.46923L11.3987 1.49449C10.8822 -0.17596 8.51776 -0.175958 8.00133 1.49449L7.08166 4.46923C6.85137 5.21412 6.16266 5.72207 5.38299 5.72207H2.2446C0.545099 5.72207 -0.185784 7.87797 1.16334 8.9115L3.85126 10.9707C4.44074 11.4222 4.68749 12.1926 4.47009 12.9026L3.49346 16.0923C2.98698 17.7465 4.90152 19.0763 6.27482 18.0243L8.61873 16.2287C9.25673 15.7399 10.1433 15.7399 10.7813 16.2287L13.1045 18.0084C14.4797 19.062 16.3961 17.727 15.8844 16.0718L14.8942 12.869C14.6732 12.1541 14.9235 11.3773 15.5203 10.9258L18.1747 8.9181Z" fill="#FFAD33"/>
</svg>
