<svg width="20" height="19" viewBox="0 0 20 19" fill="none" xmlns="http://www.w3.org/2000/svg">
<path d="M18.5731 8.9181C19.9329 7.88954 19.2055 5.72207 17.5005 5.72207H14.4154C13.6358 5.72207 12.9471 5.21411 12.7168 4.46923L11.7971 1.49449C11.2807 -0.17596 8.9162 -0.175958 8.39976 1.49449L7.4801 4.46923C7.24981 5.21412 6.56109 5.72207 5.78142 5.72207H2.64304C0.943537 5.72207 0.212653 7.87797 1.56177 8.9115L4.2497 10.9707C4.83917 11.4222 5.08593 12.1926 4.86853 12.9026L3.8919 16.0923C3.38542 17.7465 5.29995 19.0763 6.67326 18.0243L9.01717 16.2287C9.65516 15.7399 10.5417 15.7399 11.1797 16.2287L13.5029 18.0084C14.8782 19.062 16.7946 17.727 16.2829 16.0718L15.2927 12.869C15.0716 12.1541 15.3219 11.3773 15.9188 10.9258L18.5731 8.9181Z" fill="#FFAD33"/>
</svg>
