<svg width="20" height="19" viewBox="0 0 20 19" fill="none" xmlns="http://www.w3.org/2000/svg">
<path d="M18.3778 8.9181C19.7376 7.88954 19.0102 5.72207 17.3052 5.72207H14.2201C13.4405 5.72207 12.7518 5.21411 12.5215 4.46923L11.6018 1.49449C11.0854 -0.17596 8.72089 -0.175958 8.20445 1.49449L7.28478 4.46923C7.0545 5.21412 6.36578 5.72207 5.58611 5.72207H2.44773C0.748224 5.72207 0.0173407 7.87797 1.36646 8.9115L4.05439 10.9707C4.64386 11.4222 4.89061 12.1926 4.67321 12.9026L3.69659 16.0923C3.19011 17.7465 5.10464 19.0763 6.47795 18.0243L8.82186 16.2287C9.45985 15.7399 10.3464 15.7399 10.9844 16.2287L13.3076 18.0084C14.6829 19.062 16.5992 17.727 16.0875 16.0718L15.0974 12.869C14.8763 12.1541 15.1266 11.3773 15.7234 10.9258L18.3778 8.9181Z" fill="#FFAD33"/>
</svg>
